<svg xmlns="http://www.w3.org/2000/svg" xmlns:xlink="http://www.w3.org/1999/xlink" viewBox="0 0 500 500" preserveAspectRatio="xMidYMid meet" style="width: 100%; height: 100%; transform: translate3d(0px, 0px, 0px); content-visibility: visible;"><defs><clipPath id="__lottie_element_2039"><rect width="500" height="500" x="0" y="0"></rect></clipPath><g id="__lottie_element_2056"><g style="display: none;"><g><path></path></g></g></g><g id="__lottie_element_2052"><g style="display: none;"><g><path></path></g></g></g><mask id="__lottie_element_2052_1" mask-type="alpha"><use xlink:href="#__lottie_element_2052"></use></mask><g id="__lottie_element_2068"><g style="display: none;"><g><path></path></g></g></g><g id="__lottie_element_2064"><g style="display: none;"><g><path></path></g></g></g><mask id="__lottie_element_2064_1" mask-type="alpha"><use xlink:href="#__lottie_element_2064"></use></mask><g id="__lottie_element_2080"><g transform="matrix(1,0,0,1,250,250)" opacity="1" style="display: block;"><g opacity="1" transform="matrix(1,0,0,1,0,0)"><path fill="rgb(240,93,86)" fill-opacity="1" d=" M160,-175 C160,-175 160,175 160,175 C160,175 -160,175 -160,175 C-160,175 -160,-175 -160,-175 C-160,-175 160,-175 160,-175z"></path></g></g></g><g id="__lottie_element_2076"><g transform="matrix(1,0,0,1,149.5,185.81600952148438)" opacity="1" style="display: block;"><g opacity="1" transform="matrix(1,0,0,1,100.25,100.25)"><path fill="rgb(235,235,235)" fill-opacity="1" d=" M100,100 C100,100 -100,100 -100,100 C-100,100 -100,-152.6320037841797 -100,-152.6320037841797 C-100,-152.6320037841797 100,-152.6320037841797 100,-152.6320037841797 C100,-152.6320037841797 100,100 100,100z"></path></g></g></g><mask id="__lottie_element_2076_1" mask-type="alpha"><use xlink:href="#__lottie_element_2076"></use></mask><mask id="__lottie_element_2080_1" mask-type="alpha"><use xlink:href="#__lottie_element_2080"></use></mask><mask id="__lottie_element_2068_1" mask-type="alpha"><use xlink:href="#__lottie_element_2068"></use></mask><mask id="__lottie_element_2056_1" mask-type="alpha"><use xlink:href="#__lottie_element_2056"></use></mask></defs><g clip-path="url(#__lottie_element_2039)"><g transform="matrix(1,0,0,1,362.25,187.08099365234375)" opacity="1" style="display: block;"><g opacity="1" transform="matrix(1,0,0,1,0,0)"><path stroke-linecap="butt" stroke-linejoin="miter" fill-opacity="0" stroke-miterlimit="10" stroke="rgb(135,149,162)" stroke-opacity="1" stroke-width="15.337" d=" M32.5,7.669000148773193 C32.5,7.669000148773193 32.5,237.66900634765625 32.5,237.66900634765625"></path></g><g opacity="1" transform="matrix(1,0,0,1,0,0)"><path stroke-linecap="butt" stroke-linejoin="miter" fill-opacity="0" stroke-miterlimit="10" stroke="rgb(135,149,162)" stroke-opacity="1" stroke-width="15" d=" M7.5,237.66900634765625 C7.5,237.66900634765625 57.5,237.66900634765625 57.5,237.66900634765625"></path></g></g><g transform="matrix(1,0,0,1,72.25,187.08099365234375)" opacity="1" style="display: block;"><g opacity="1" transform="matrix(1,0,0,1,0,0)"><path stroke-linecap="butt" stroke-linejoin="miter" fill-opacity="0" stroke-miterlimit="10" stroke="rgb(135,149,162)" stroke-opacity="1" stroke-width="15.337" d=" M32.5,7.669000148773193 C32.5,7.669000148773193 32.5,237.66900634765625 32.5,237.66900634765625"></path></g><g opacity="1" transform="matrix(1,0,0,1,0,0)"><path stroke-linecap="butt" stroke-linejoin="miter" fill-opacity="0" stroke-miterlimit="10" stroke="rgb(135,149,162)" stroke-opacity="1" stroke-width="15" d=" M7.5,237.66900634765625 C7.5,237.66900634765625 57.5,237.66900634765625 57.5,237.66900634765625"></path></g></g><g transform="matrix(1,0,0,1,124.75,184.75)" opacity="1" style="display: block;"><g opacity="1" transform="matrix(1,0,0,1,125.25,25.25)"><path fill="rgb(95,102,117)" fill-opacity="1" d=" M110,-25 C110,-25 -110,-25 -110,-25 C-118.28399658203125,-25 -125,-18.284000396728516 -125,-10 C-125,-10 -125,25 -125,25 C-125,25 125,25 125,25 C125,25 125,-10 125,-10 C125,-18.284000396728516 118.28399658203125,-25 110,-25z"></path></g></g><g mask="url(#__lottie_element_2080_1)" style="display: block;"><g transform="matrix(1,0,0,1,149.5,185.81600952148438)" opacity="1"><g opacity="1" transform="matrix(1,0,0,1,100.25,100.25)"><path fill="rgb(235,235,235)" fill-opacity="1" d=" M100,100 C100,100 -100,100 -100,100 C-100,100 -100,-152.6320037841797 -100,-152.6320037841797 C-100,-152.6320037841797 100,-152.6320037841797 100,-152.6320037841797 C100,-152.6320037841797 100,100 100,100z"></path></g></g></g><g mask="url(#__lottie_element_2076_1)" style="display: block;"><g transform="matrix(1,0,0,1,-0.25,-0.25000762939453125)" opacity="1"><g opacity="1" transform="matrix(1,0,0,1,109.39099884033203,193.16500854492188)"><g opacity="1" transform="matrix(1,0,0,1,115.6449966430664,116.83399963378906)"><path fill="rgb(239,94,85)" fill-opacity="1" d=" M70.91999816894531,6.666999816894531 C93.25800323486328,4.223999977111816 115.3949966430664,-4.4070000648498535 108.77200317382812,-30.035999298095703 C101.28900146484375,-58.994998931884766 78.99600219726562,-57.10100173950195 58.73400115966797,-48.10900115966797 C50.27399826049805,-44.354000091552734 41.361000061035156,-52.71500015258789 45.262001037597656,-61.08399963378906 C54.32899856567383,-80.53500366210938 57.31399917602539,-101.58599853515625 33.1609992980957,-108.197998046875 C2.5269999504089355,-116.58399963378906 -7.415999889373779,-94.21199798583984 -10.02400016784668,-71.5009994506836 C-11.060999870300293,-62.47200012207031 -22.591999053955078,-59.689998626708984 -28.051000595092773,-66.97100067138672 C-40.06800079345703,-83 -56.78499984741211,-94.90299987792969 -75.31999969482422,-77.68599700927734 C-98.38700103759766,-56.26100158691406 -85.34400177001953,-37.4630012512207 -67.98300170898438,-24.523000717163086 C-60.73500061035156,-19.121999740600586 -63.861000061035156,-7.7170000076293945 -72.85099792480469,-6.663000106811523 C-94.3219985961914,-4.144999980926514 -115.3949966430664,4.552000045776367 -108.80999755859375,30.03499984741211 C-101.31300354003906,59.04999923706055 -79.43800354003906,57.5989990234375 -59.62900161743164,49.0620002746582 C-51.23099899291992,45.44300079345703 -42.439998626708984,53.672000885009766 -46.21200180053711,61.97700119018555 C-54.834999084472656,80.95999908447266 -57.39099884033203,101.57499694824219 -33.198001861572266,108.197998046875 C-2.563999891281128,116.58399963378906 7.363999843597412,94.25299835205078 9.958000183105469,71.58100128173828 C10.991000175476074,62.55699920654297 22.510000228881836,59.76499938964844 27.976999282836914,67.03399658203125 C40.007999420166016,83.03099822998047 56.742000579833984,94.90699768066406 75.28299713134766,77.68599700927734 C98.42400360107422,56.191001892089844 84.4280014038086,37.32099914550781 66.23899841308594,24.358999252319336 C58.902000427246094,19.1299991607666 61.952999114990234,7.6479997634887695 70.91999816894531,6.666999816894531z"></path></g></g><g opacity="1" transform="matrix(1,0,0,1,189.69400024414062,274.6940002441406)"><g opacity="1" transform="matrix(1,0,0,1,35.305999755859375,35.305999755859375)"><path fill="rgb(255,220,105)" fill-opacity="1" d=" M32.02899932861328,-5.480999946594238 C35.055999755859375,12.208000183105469 23.170000076293945,29.00200080871582 5.480999946594238,32.02899932861328 C-12.208000183105469,35.055999755859375 -29.00200080871582,23.16900062561035 -32.02899932861328,5.480000019073486 C-35.055999755859375,-12.208999633789062 -23.170000076293945,-29.00200080871582 -5.480999946594238,-32.02899932861328 C12.208999633789062,-35.055999755859375 29.00200080871582,-23.170000076293945 32.02899932861328,-5.480999946594238z"></path></g></g></g></g><g mask="url(#__lottie_element_2068_1)" style="display: none;"><g><g><path></path></g></g></g><g mask="url(#__lottie_element_2064_1)" style="display: none;"><g><g><g><path></path></g></g><g><g><path></path></g></g></g></g><g mask="url(#__lottie_element_2056_1)" style="display: none;"><g><g><path></path></g></g></g><g mask="url(#__lottie_element_2052_1)" style="display: none;"><g><g><g><path></path></g></g><g><g><path></path></g></g></g></g><g transform="matrix(1,0,0,1,74.75,74.75)" opacity="1" style="display: block;"><g opacity="1" transform="matrix(1,0,0,1,175.25,80.25)"><path fill="rgb(81,73,208)" fill-opacity="1" d=" M155,-80 C155,-80 -155,-80 -155,-80 C-166,-80 -175,-71 -175,-60 C-175,-60 -175,60 -175,60 C-175,71 -166,80 -155,80 C-155,80 -125,80 -125,80 C-125,80 -125,45 -125,45 C-125,36.715999603271484 -118.28399658203125,30 -110,30 C-110,30 110,30 110,30 C118.28399658203125,30 125,36.715999603271484 125,45 C125,45 125,80 125,80 C125,80 155,80 155,80 C166,80 175,71 175,60 C175,60 175,-60 175,-60 C175,-71 166,-80 155,-80z"></path></g></g><g transform="matrix(1,0,0,1,335,75)" opacity="1" style="display: block;"><g opacity="1" transform="matrix(1,0,0,1,45,45)"><path fill="rgb(255,220,105)" fill-opacity="1" d=" M-20,0 C-20,11.045999526977539 -11.045999526977539,20 0,20 C11.045999526977539,20 20,11.045999526977539 20,0 C20,-11.045999526977539 11.045999526977539,-20 0,-20 C-11.045999526977539,-20 -20,-11.045999526977539 -20,0z"></path><path stroke-linecap="round" stroke-linejoin="round" fill-opacity="0" stroke="rgb(255,185,77)" stroke-opacity="1" stroke-width="10" d=" M-20,0 C-20,11.045999526977539 -11.045999526977539,20 0,20 C11.045999526977539,20 20,11.045999526977539 20,0 C20,-11.045999526977539 11.045999526977539,-20 0,-20 C-11.045999526977539,-20 -20,-11.045999526977539 -20,0z"></path></g></g><g transform="matrix(1,0,0,1,314.75,109.75)" opacity="1" style="display: block;"><g opacity="1" transform="matrix(1,0,0,1,10.25,10.25)"><path fill="rgb(255,220,105)" fill-opacity="1" d=" M-10,0 C-10,5.5229997634887695 -5.5229997634887695,10 0,10 C5.5229997634887695,10 10,5.5229997634887695 10,0 C10,-5.5229997634887695 5.5229997634887695,-10 0,-10 C-5.5229997634887695,-10 -10,-5.5229997634887695 -10,0z"></path></g></g><g transform="matrix(1,0,0,1,274.75,109.75)" opacity="1" style="display: block;"><g opacity="1" transform="matrix(1,0,0,1,10.25,10.25)"><path fill="rgb(239,94,85)" fill-opacity="1" d=" M-10,0 C-10,5.5229997634887695 -5.5229997634887695,10 0,10 C5.5229997634887695,10 10,5.5229997634887695 10,0 C10,-5.5229997634887695 5.5229997634887695,-10 0,-10 C-5.5229997634887695,-10 -10,-5.5229997634887695 -10,0z"></path></g></g></g></svg>
