<svg xmlns="http://www.w3.org/2000/svg" xmlns:xlink="http://www.w3.org/1999/xlink" viewBox="0 0 979 720" preserveAspectRatio="xMidYMid meet" style="width: 100%; height: 100%; transform: translate3d(0px, 0px, 0px); content-visibility: visible;"><defs><clipPath id="__lottie_element_2855"><rect width="979" height="720" x="0" y="0"></rect></clipPath><clipPath id="__lottie_element_2873"><path fill="#ffffff" clip-rule="nonzero" d=" M13.741999626159668,56.28799819946289 C13.741999626159668,56.28799819946289 -78.25800323486328,380.2879943847656 -78.25800323486328,380.2879943847656 C-78.25800323486328,380.2879943847656 282.11700439453125,282.2879943847656 282.11700439453125,282.2879943847656 C282.11700439453125,282.2879943847656 13.741999626159668,56.28799819946289 13.741999626159668,56.28799819946289" fill-opacity="1"></path></clipPath><clipPath id="__lottie_element_2876"><path fill="#ffffff" clip-rule="nonzero" d=" M13.741999626159668,56.28799819946289 C13.741999626159668,56.28799819946289 -78.25800323486328,380.2879943847656 -78.25800323486328,380.2879943847656 C-78.25800323486328,380.2879943847656 282.11700439453125,282.2879943847656 282.11700439453125,282.2879943847656 C282.11700439453125,282.2879943847656 13.741999626159668,56.28799819946289 13.741999626159668,56.28799819946289" fill-opacity="1"></path></clipPath><clipPath id="__lottie_element_2879"><path fill="#ffffff" clip-rule="nonzero" d=" M191.24200439453125,-40.21200180053711 C191.24200439453125,-40.21200180053711 -70.25800323486328,116.28800201416016 -70.25800323486328,116.28800201416016 C-70.25800323486328,116.28800201416016 282.24200439453125,282.0379943847656 282.24200439453125,282.0379943847656 C282.24200439453125,282.0379943847656 191.24200439453125,-40.21200180053711 191.24200439453125,-40.21200180053711" fill-opacity="1"></path></clipPath><clipPath id="__lottie_element_2882"><path fill="#ffffff" clip-rule="nonzero" d=" M191.24200439453125,-40.21200180053711 C191.24200439453125,-40.21200180053711 -70.25800323486328,116.28800201416016 -70.25800323486328,116.28800201416016 C-70.25800323486328,116.28800201416016 282.24200439453125,282.0379943847656 282.24200439453125,282.0379943847656 C282.24200439453125,282.0379943847656 191.24200439453125,-40.21200180053711 191.24200439453125,-40.21200180053711" fill-opacity="1"></path></clipPath><linearGradient id="__lottie_element_2887" spreadMethod="pad" gradientUnits="userSpaceOnUse" x1="-400" y1="0" x2="295" y2="0"><stop offset="0%" stop-color="rgb(133,64,176)"></stop><stop offset="50%" stop-color="rgb(159,37,128)"></stop><stop offset="100%" stop-color="rgb(186,11,79)"></stop></linearGradient><mask mask-type="alpha" id="__lottie_element_2913_2"><path fill="#ffffff" clip-rule="nonzero" d=" M142.71099853515625,92.79299926757812 C142.71099853515625,155.98500061035156 91.48400115966797,207.21099853515625 28.292999267578125,207.21099853515625 C-34.89899826049805,207.21099853515625 -86.125,155.98500061035156 -86.125,92.79299926757812 C-86.125,29.601999282836914 -34.89899826049805,-21.625 28.292999267578125,-21.625 C91.48400115966797,-21.625 142.71099853515625,29.601999282836914 142.71099853515625,92.79299926757812" fill-opacity="1"></path></mask><mask id="__lottie_element_2913"><g mask="url(#__lottie_element_2913_2)"><path fill="#ffffff" clip-rule="nonzero" d=" M53.34299850463867,-34.75600051879883 C51.84299850463867,-35.00600051879883 -34.90700149536133,-26.256000518798828 -34.90700149536133,-26.256000518798828 C-34.90700149536133,-26.256000518798828 -98.65699768066406,10.494000434875488 -98.65699768066406,11.244000434875488 C-98.65699768066406,11.994000434875488 -101.65699768066406,45.99399948120117 -101.65699768066406,45.99399948120117 C-101.65699768066406,45.99399948120117 -98.90699768066406,58.99399948120117 -97.65699768066406,64.99400329589844 C-96.40699768066406,70.99400329589844 -87.70899963378906,75.71499633789062 -90.15699768066406,80.24400329589844 C-95.15699768066406,89.49400329589844 -92.15699768066406,86.49400329589844 -86.90699768066406,83.99400329589844 C-81.65699768066406,81.49400329589844 -84.90699768066406,81.74400329589844 -80.90699768066406,78.99400329589844 C-76.90699768066406,76.24400329589844 -55.027000427246094,56.18000030517578 -37.28200149536133,51.74399948120117 C-20.781999588012695,47.61899948120117 2.0929999351501465,49.49399948120117 30.593000411987305,39.74399948120117 C59.09299850463867,29.993999481201172 75.09300231933594,20.743999481201172 86.09300231933594,5.74399995803833 C97.09300231933594,-9.255999565124512 99.09300231933594,-14.255999565124512 99.09300231933594,-14.255999565124512 C99.09300231933594,-14.255999565124512 54.84299850463867,-34.50600051879883 53.34299850463867,-34.75600051879883" fill-opacity="1"></path></g></mask><clipPath id="__lottie_element_2919"><path fill="#ffffff" clip-rule="nonzero" d=" M197.31700134277344,-10.765000343322754 C197.31700134277344,-10.765000343322754 125.19200134277344,-9.140000343322754 123.81700134277344,-9.140000343322754 C122.44200134277344,-9.140000343322754 16.941999435424805,3.984999895095825 16.941999435424805,3.984999895095825 C16.941999435424805,3.984999895095825 -7.308000087738037,51.36000061035156 -7.308000087738037,51.36000061035156 C-7.308000087738037,51.36000061035156 -12.682999610900879,101.23500061035156 -12.682999610900879,101.23500061035156 C-12.682999610900879,101.23500061035156 -7.165999889373779,117.2020034790039 -2.433000087738037,109.73500061035156 C3.191999912261963,100.86000061035156 19.31599998474121,87.5989990234375 32.94200134277344,79.36000061035156 C54.44200134277344,66.36000061035156 96.31700134277344,73.48500061035156 128.31700134277344,57.98500061035156 C154.23199462890625,45.43299865722656 165.81700134277344,37.86000061035156 182.94200134277344,13.484999656677246 C200.06700134277344,-10.890000343322754 197.31700134277344,-10.765000343322754 197.31700134277344,-10.765000343322754" fill-opacity="1"></path></clipPath><linearGradient id="__lottie_element_2924" spreadMethod="pad" gradientUnits="userSpaceOnUse" x1="-18" y1="-174" x2="98" y2="81"><stop offset="0%" stop-color="rgb(188,11,78)"></stop><stop offset="50%" stop-color="rgb(119,30,101)"></stop><stop offset="100%" stop-color="rgb(50,50,124)"></stop></linearGradient></defs><g clip-path="url(#__lottie_element_2855)"><g transform="matrix(2.619999885559082,0,0,2.619999885559082,219.44613647460938,45.99372100830078)" opacity="1" style="display: block;"><g opacity="1" transform="matrix(1,0,0,1,114.66799926757812,114.66799926757812)"><path fill="rgb(221,221,221)" fill-opacity="1" d=" M114.41799926757812,0 C114.41799926757812,63.191001892089844 63.191001892089844,114.41799926757812 0,114.41799926757812 C-63.19200134277344,114.41799926757812 -114.41799926757812,63.191001892089844 -114.41799926757812,0 C-114.41799926757812,-63.19200134277344 -63.19200134277344,-114.41799926757812 0,-114.41799926757812 C63.191001892089844,-114.41799926757812 114.41799926757812,-63.19200134277344 114.41799926757812,0z"></path></g></g><g transform="matrix(2.619999885559082,0,0,2.619999885559082,192.9369659423828,41.42181396484375)" opacity="1" style="display: block;"><g opacity="1" transform="matrix(1,0,0,1,114.66799926757812,114.66799926757812)"><path fill="url(#__lottie_element_2924)" fill-opacity="1" d=" M114.41799926757812,0 C114.41799926757812,63.19200134277344 63.191001892089844,114.41799926757812 0,114.41799926757812 C-63.19200134277344,114.41799926757812 -114.41799926757812,63.19200134277344 -114.41799926757812,0 C-114.41799926757812,-63.191001892089844 -63.19200134277344,-114.41799926757812 0,-114.41799926757812 C63.191001892089844,-114.41799926757812 114.41799926757812,-63.191001892089844 114.41799926757812,0z"></path></g></g><g clip-path="url(#__lottie_element_2919)" transform="matrix(2.619999885559082,0,0,2.619999885559082,192.9369659423828,41.42181396484375)" opacity="1" style="display: block;"><g opacity="1" transform="matrix(1,0,0,1,114.66799926757812,114.66799926757812)"><path fill="rgb(255,255,255)" fill-opacity="1" d=" M114.41799926757812,0 C114.41799926757812,63.19200134277344 63.191001892089844,114.41799926757812 0,114.41799926757812 C-63.19200134277344,114.41799926757812 -114.41799926757812,63.19200134277344 -114.41799926757812,0 C-114.41799926757812,-63.191001892089844 -63.19200134277344,-114.41799926757812 0,-114.41799926757812 C63.191001892089844,-114.41799926757812 114.41799926757812,-63.191001892089844 114.41799926757812,0z"></path></g></g><g transform="matrix(2.619999885559082,0,0,2.619999885559082,809.2736206054688,432.5930480957031)" opacity="1" style="display: block;"><g opacity="1" transform="matrix(1.0037699937820435,0,0,0.9986799955368042,21.69300079345703,19.97100067138672)"><path fill="rgb(187,10,78)" fill-opacity="1" d=" M-19.719999313354492,0 C-19.719999313354492,10.892000198364258 -10.892000198364258,19.72100067138672 0,19.72100067138672 C10.890999794006348,19.72100067138672 19.719999313354492,10.892000198364258 19.719999313354492,0 C19.719999313354492,-10.892000198364258 10.890999794006348,-19.72100067138672 0,-19.72100067138672 C-10.892000198364258,-19.72100067138672 -19.719999313354492,-10.892000198364258 -19.719999313354492,0z"></path></g><g opacity="1" transform="matrix(1,0,0,1,20.722999572753906,11.052000045776367)"><path stroke-linecap="butt" stroke-linejoin="miter" fill-opacity="0" stroke-miterlimit="10" stroke="rgb(247,143,37)" stroke-opacity="1" stroke-width="0.789" d=" M17.548999786376953,-1.75600004196167 C8.152999877929688,0.6629999876022339 -9.055000305175781,1.75600004196167 -17.548999786376953,1.3839999437332153"></path></g><g opacity="1" transform="matrix(1,0,0,1,21.233999252319336,18.291000366210938)"><path stroke-linecap="butt" stroke-linejoin="miter" fill-opacity="0" stroke-miterlimit="10" stroke="rgb(247,143,37)" stroke-opacity="1" stroke-width="0.789" d=" M19.26099967956543,-4.284999847412109 C5.26200008392334,-0.7390000224113464 -10.29699993133545,4.284999847412109 -19.26099967956543,1.680999994277954"></path></g><g opacity="1" transform="matrix(1,0,0,1,21.725000381469727,25.327999114990234)"><path stroke-linecap="butt" stroke-linejoin="miter" fill-opacity="0" stroke-miterlimit="10" stroke="rgb(247,143,37)" stroke-opacity="1" stroke-width="0.789" d=" M18.552000045776367,1.2519999742507935 C4.39900016784668,0.13099999725818634 -9.5,-1.4390000104904175 -18.552000045776367,1.4390000104904175"></path></g><g opacity="1" transform="matrix(1,0,0,1,21.69300079345703,31.93600082397461)"><path stroke-linecap="butt" stroke-linejoin="miter" fill-opacity="0" stroke-miterlimit="10" stroke="rgb(247,143,37)" stroke-opacity="1" stroke-width="0.789" d=" M16.05500030517578,-0.5120000243186951 C7.2210001945495605,-0.6159999966621399 -11.050999641418457,0.6159999966621399 -16.05500030517578,-0.5120000243186951"></path></g><g opacity="1" transform="matrix(1,0,0,1,18.06999969482422,35.78200149536133)"><path stroke-linecap="butt" stroke-linejoin="miter" fill-opacity="0" stroke-miterlimit="10" stroke="rgb(247,143,37)" stroke-opacity="1" stroke-width="1" d=" M-10.932999610900879,-2.50600004196167 C-6.366000175476074,-2.322000026702881 3.0230000019073486,0.1720000058412552 10.932999610900879,2.50600004196167"></path></g></g><g mask="url(#__lottie_element_2913)" transform="matrix(2.619999885559082,0,0,2.619999885559082,419.82635498046875,99.36833953857422)" opacity="1" style="display: block;"><g opacity="1" transform="matrix(0.9902680516242981,-0.13917310535907745,0.13917310535907745,0.9902680516242981,-76.93599700927734,69.02300262451172)"><path fill="rgb(187,10,78)" fill-opacity="1" d=" M5.448999881744385,-8.442000389099121 C3.878999948501587,-9.069999694824219 -7.382999897003174,-2.9110000133514404 -7.388999938964844,-0.3490000069141388 C-7.394000053405762,1.74399995803833 3.250999927520752,9.069999694824219 5.448999881744385,8.303000450134277 C7.394000053405762,7.624000072479248 7.0370001792907715,-7.807000160217285 5.448999881744385,-8.442000389099121z"></path></g><g opacity="1" transform="matrix(0.9902680516242981,-0.13917310535907745,0.13917310535907745,0.9902680516242981,17.90399932861328,34.47800064086914)"><path fill="rgb(187,10,78)" fill-opacity="1" d=" M5.448999881744385,-8.442000389099121 C3.878999948501587,-9.069999694824219 -7.382999897003174,-2.9110000133514404 -7.388999938964844,-0.3490000069141388 C-7.394000053405762,1.74399995803833 3.250999927520752,9.069999694824219 5.448999881744385,8.303000450134277 C7.394000053405762,7.624000072479248 7.0370001792907715,-7.807000160217285 5.448999881744385,-8.442000389099121z"></path></g><g opacity="1" transform="matrix(0.8480480909347534,0.5299192667007446,-0.5299192667007446,0.8480480909347534,41.90399932861328,-11.522000312805176)"><path fill="rgb(187,10,78)" fill-opacity="1" d=" M5.448999881744385,-8.442000389099121 C3.878999948501587,-9.069999694824219 -7.382999897003174,-2.9110000133514404 -7.388999938964844,-0.3490000069141388 C-7.394000053405762,1.74399995803833 3.250999927520752,9.069999694824219 5.448999881744385,8.303000450134277 C7.394000053405762,7.624000072479248 7.0370001792907715,-7.807000160217285 5.448999881744385,-8.442000389099121z"></path></g><g opacity="1" transform="matrix(0.2923716902732849,-0.9563047289848328,0.9563047289848328,0.2923716902732849,60.54999923706055,19.660999298095703)"><path fill="rgb(187,10,78)" fill-opacity="1" d=" M5.448999881744385,-8.442000389099121 C3.878999948501587,-9.069999694824219 -7.382999897003174,-2.9110000133514404 -7.388999938964844,-0.3490000069141388 C-7.394000053405762,1.74399995803833 3.250999927520752,9.069999694824219 5.448999881744385,8.303000450134277 C7.394000053405762,7.624000072479248 7.0370001792907715,-7.807000160217285 5.448999881744385,-8.442000389099121z"></path></g><g opacity="1" transform="matrix(0.9563047289848328,-0.2923716902732849,0.2923716902732849,0.9563047289848328,75.55000305175781,6.660999774932861)"><path fill="rgb(187,10,78)" fill-opacity="1" d=" M5.448999881744385,-8.442000389099121 C3.878999948501587,-9.069999694824219 -7.382999897003174,-2.9110000133514404 -7.388999938964844,-0.3490000069141388 C-7.394000053405762,1.74399995803833 3.250999927520752,9.069999694824219 5.448999881744385,8.303000450134277 C7.394000053405762,7.624000072479248 7.0370001792907715,-7.807000160217285 5.448999881744385,-8.442000389099121z"></path></g><g opacity="1" transform="matrix(0.9563047289848328,-0.2923716902732849,0.2923716902732849,0.9563047289848328,-43.38399887084961,39.9109992980957)"><path fill="rgb(187,10,78)" fill-opacity="1" d=" M5.448999881744385,-8.442000389099121 C3.878999948501587,-9.069999694824219 -7.382999897003174,-2.9110000133514404 -7.388999938964844,-0.3490000069141388 C-7.394000053405762,1.74399995803833 3.250999927520752,9.069999694824219 5.448999881744385,8.303000450134277 C7.394000053405762,7.624000072479248 7.0370001792907715,-7.807000160217285 5.448999881744385,-8.442000389099121z"></path></g><g opacity="1" transform="matrix(1,0,0,1,-25.35700035095215,9.319000244140625)"><path fill="rgb(187,10,78)" fill-opacity="1" d=" M5.448999881744385,-8.442000389099121 C3.878999948501587,-9.069999694824219 -7.382999897003174,-2.9110000133514404 -7.388999938964844,-0.3490000069141388 C-7.394000053405762,1.74399995803833 3.250999927520752,9.069999694824219 5.448999881744385,8.303000450134277 C7.394000053405762,7.624000072479248 7.0370001792907715,-7.807000160217285 5.448999881744385,-8.442000389099121z"></path></g><g opacity="1" transform="matrix(1,0,0,1,7.64300012588501,9.319000244140625)"><path fill="rgb(187,10,78)" fill-opacity="1" d=" M5.448999881744385,-8.442000389099121 C3.878999948501587,-9.069999694824219 -7.382999897003174,-2.9110000133514404 -7.388999938964844,-0.3490000069141388 C-7.394000053405762,1.74399995803833 3.250999927520752,9.069999694824219 5.448999881744385,8.303000450134277 C7.394000053405762,7.624000072479248 7.0370001792907715,-7.807000160217285 5.448999881744385,-8.442000389099121z"></path></g></g><g transform="matrix(2.619999885559082,0,0,2.619999885559082,127.5732192993164,22.73072624206543)" opacity="1" style="display: block;"><g opacity="1" transform="matrix(1,0,0,1,110.802001953125,78.24400329589844)"><path stroke-linecap="round" stroke-linejoin="miter" fill-opacity="0" stroke-miterlimit="10" stroke="rgb(0,0,0)" stroke-opacity="1" stroke-width="3" d=" M-133.74000549316406,45.24399948120117 C-106.91300201416016,55.875 -92.77100372314453,38.64899826049805 -67.1520004272461,18.2810001373291 C-30.674999237060547,-10.720999717712402 -4.695000171661377,7.294000148773193 43,-13.093000411987305 C78.58100128173828,-28.302000045776367 91.71299743652344,-55 125.177001953125,-73.24400329589844"></path></g></g><g transform="matrix(2.619999885559082,0,0,2.619999885559082,348.5518798828125,298.05865478515625)" opacity="1" style="display: block;"><g opacity="1" transform="matrix(1,0,0,1,29.552000045776367,44.62200164794922)"><path fill="rgb(135,135,199)" fill-opacity="1" d=" M0.7210000157356262,-37.301998138427734 C-1.9859999418258667,-41.41600036621094 -5.302999973297119,-44.37200164794922 -10.53499984741211,-44.231998443603516 C-15.767999649047852,-44.09299850463867 -22.117000579833984,-34.875 -23.58099937438965,-24.97599983215332 C-25.045000076293945,-15.07800006866455 -19.95400047302246,2.510999917984009 -16.326000213623047,7.534999847412109 C-12.697999954223633,12.557999610900879 -14.51200008392334,9.767000198364258 -16.7450008392334,10.185999870300293 C-18.976999282836914,10.604999542236328 -29.302000045776367,11.581999778747559 -17.371999740600586,23.441999435424805 C-5.441999912261963,35.301998138427734 -2.0889999866485596,31.18600082397461 6.0370001792907715,34.047000885009766 C14.163000106811523,36.90700149536133 16.81399917602539,38.6510009765625 16.326000213623047,41.51100158691406 C15.838000297546387,44.37200164794922 18.976999282836914,43.88399887084961 20.652000427246094,39.487998962402344 C22.326000213623047,35.09299850463867 21.266000747680664,33.97700119018555 24.062999725341797,27.697999954223633 C26.861000061035156,21.41900062561035 29.30299949645996,20.72100067138672 29.30299949645996,16.884000778198242 C29.30299949645996,13.04699993133545 28.465999603271484,8.720999717712402 24.976999282836914,8.442000389099121 C21.48900032043457,8.163000106811523 19.391000747680664,9.717000007629395 16.53499984741211,11.651000022888184 C13.678999900817871,13.586999893188477 11.371999740600586,10.465999603271484 9.697999954223633,4.74399995803833 C8.02400016784668,-0.9769999980926514 6.0320000648498535,-7.324999809265137 4.760000228881836,-18.349000930786133 C3.489000082015991,-29.371999740600586 3.674999952316284,-32.81399917602539 0.7210000157356262,-37.301998138427734z"></path></g></g><g transform="matrix(2.619999885559082,0,0,2.619999885559082,373.9161071777344,297.0997619628906)" opacity="1" style="display: block;"><g opacity="1" transform="matrix(1,0,0,1,20.30699920654297,43.801998138427734)"><path stroke-linecap="butt" stroke-linejoin="miter" fill-opacity="0" stroke-miterlimit="10" stroke="rgb(49,49,123)" stroke-opacity="1" stroke-width="1" d=" M17.80699920654297,41.301998138427734 C14.913000106811523,37.81399917602539 15.472000122070312,32.16299819946289 11.28600025177002,25.18600082397461 C5.85699987411499,16.13800048828125 0.05299999937415123,15.418999671936035 -5.110000133514404,7.046000003814697 C-10.27299976348877,-1.3259999752044678 -2.178999900817871,-12.906999588012695 -6.156000137329102,-22.256000518798828 C-10.133000373840332,-31.604000091552734 -14.527999877929688,-37.67399978637695 -17.80699920654297,-41.301998138427734"></path></g><g opacity="1" transform="matrix(1,0,0,1,36.13999938964844,71.53399658203125)"><path stroke-linecap="butt" stroke-linejoin="miter" fill-opacity="0" stroke-miterlimit="10" stroke="rgb(49,49,123)" stroke-opacity="1" stroke-width="1" d=" M0.26600000262260437,-5.197000026702881 C0.8240000009536743,-2.615999937057495 1.2599999904632568,3.868000030517578 -1.2599999904632568,5.197000026702881"></path></g><g opacity="1" transform="matrix(1,0,0,1,27.461000442504883,67.28299713134766)"><path stroke-linecap="butt" stroke-linejoin="miter" fill-opacity="0" stroke-miterlimit="10" stroke="rgb(49,49,123)" stroke-opacity="1" stroke-width="1" d=" M-4.500999927520752,-2.3420000076293945 C-2.7750000953674316,-0.24899999797344208 2.1510000228881836,2.000999927520752 4.500999927520752,2.3420000076293945"></path></g><g opacity="1" transform="matrix(1,0,0,1,24.57200050354004,56.099998474121094)"><path stroke-linecap="butt" stroke-linejoin="miter" fill-opacity="0" stroke-miterlimit="10" stroke="rgb(49,49,123)" stroke-opacity="1" stroke-width="1" d=" M-0.28200000524520874,-4.560999870300293 C-0.09600000083446503,-0.01899999938905239 0.28200000524520874,1.465000033378601 -0.11599999666213989,4.560999870300293"></path></g><g opacity="1" transform="matrix(1,0,0,1,13.461999893188477,50.80699920654297)"><path stroke-linecap="butt" stroke-linejoin="miter" fill-opacity="0" stroke-miterlimit="10" stroke="rgb(49,49,123)" stroke-opacity="1" stroke-width="1" d=" M-4.124000072479248,-3.377000093460083 C-2.7990000247955322,-0.1679999977350235 1.4839999675750732,3.318000078201294 4.124000072479248,3.377000093460083"></path></g><g opacity="1" transform="matrix(1,0,0,1,11.720000267028809,22.488000869750977)"><path stroke-linecap="butt" stroke-linejoin="miter" fill-opacity="0" stroke-miterlimit="10" stroke="rgb(49,49,123)" stroke-opacity="1" stroke-width="1" d=" M-3.9189999103546143,-3.6630001068115234 C-1.059000015258789,-1.0820000171661377 3.1050000190734863,1.9190000295639038 3.9189999103546143,3.6630001068115234"></path></g><g opacity="1" transform="matrix(1,0,0,1,16.95199966430664,27.43899917602539)"><path stroke-linecap="butt" stroke-linejoin="miter" fill-opacity="0" stroke-miterlimit="10" stroke="rgb(49,49,123)" stroke-opacity="1" stroke-width="1" d=" M2.2219998836517334,-6.171999931335449 C2.0820000171661377,-2.265000104904175 1.1480000019073486,3.515000104904175 -2.2219998836517334,6.171999931335449"></path></g></g><g transform="matrix(2.619999885559082,0,0,2.619999885559082,296.7151794433594,397.68939208984375)" opacity="1" style="display: block;"><g opacity="1" transform="matrix(1,0,0,1,16.621999740600586,13.895999908447266)"><path stroke-linecap="butt" stroke-linejoin="miter" fill-opacity="0" stroke-miterlimit="10" stroke="rgb(135,135,199)" stroke-opacity="1" stroke-width="1" d=" M14.121999740600586,11.024999618530273 C7.27400016784668,11.118000030517578 2.7160000801086426,11.397000312805176 -1.190999984741211,10.001999855041504 C-5.0980000495910645,8.605999946594238 -6.866000175476074,2.811000108718872 -2.9600000381469727,1.8940000534057617 C0.9470000267028809,0.9779999852180481 1.6920000314712524,3.490000009536743 0.29600000381469727,4.793000221252441 C-1.0989999771118164,6.093999862670898 -9.92300033569336,10.390999794006348 -12.076000213623047,1.8940000534057617 C-14.121999740600586,-6.184999942779541 -7.339000225067139,-10.345999717712402 -5.4710001945495605,-11.395999908447266"></path></g></g><g transform="matrix(2.619999885559082,0,0,2.619999885559082,208.12510681152344,315.1960754394531)" opacity="1" style="display: block;"><g opacity="1" transform="matrix(1,0,0,1,65.70899963378906,51.268001556396484)"><path stroke-linecap="butt" stroke-linejoin="miter" fill-opacity="0" stroke-miterlimit="10" stroke="rgb(255,255,255)" stroke-opacity="1" stroke-width="1" d=" M35.02299880981445,29.791000366210938 C37.255001068115234,20.72100067138672 39.20899963378906,8.440999984741211 30.27899932861328,-0.4880000054836273 C21.347999572753906,-9.418999671936035 16.46500015258789,-12.348999977111816 0.4189999997615814,-15 C-15.628000259399414,-17.650999069213867 -25.674999237060547,-17.371999740600586 -39.20899963378906,-29.791000366210938"></path></g><g opacity="1" transform="matrix(1,0,0,1,37.46699905395508,25.104000091552734)"><path stroke-linecap="butt" stroke-linejoin="miter" fill-opacity="0" stroke-miterlimit="10" stroke="rgb(255,255,255)" stroke-opacity="1" stroke-width="1" d=" M32.14899826049805,12.559000015258789 C30.60700035095215,15.140999794006348 12.194999694824219,22.604999542236328 -10.967000007629395,12.559000015258789 C-34.130001068115234,2.51200008392334 -34.96699905395508,-8.373000144958496 -31.200000762939453,-14.232999801635742 C-27.433000564575195,-20.093000411987305 -14.036999702453613,-22.604999542236328 1.7300000190734863,-14.232999801635742 C17.49799919128418,-5.861000061035156 34.96699905395508,7.839000225067139 32.14899826049805,12.559000015258789z"></path></g><g opacity="1" transform="matrix(1,0,0,1,86.23899841308594,38.49700164794922)"><path stroke-linecap="butt" stroke-linejoin="miter" fill-opacity="0" stroke-miterlimit="10" stroke="rgb(255,255,255)" stroke-opacity="1" stroke-width="1" d=" M2.9489998817443848,6.136000156402588 C-0.017999999225139618,1.8179999589920044 -1.8329999446868896,-2.0899999141693115 -2.9489998817443848,-6.136000156402588"></path></g><g opacity="1" transform="matrix(1,0,0,1,86.12100219726562,33.986000061035156)"><path stroke-linecap="butt" stroke-linejoin="miter" fill-opacity="0" stroke-miterlimit="10" stroke="rgb(255,255,255)" stroke-opacity="1" stroke-width="1" d=" M1.4479999542236328,-3.115000009536743 C0.5640000104904175,-1.2079999446868896 -1.4479999542236328,2.4690001010894775 -1.1629999876022339,3.115000009536743"></path></g><g opacity="1" transform="matrix(1,0,0,1,87.98300170898438,27.336999893188477)"><path stroke-linecap="butt" stroke-linejoin="miter" fill-opacity="0" stroke-miterlimit="10" stroke="rgb(255,255,255)" stroke-opacity="1" stroke-width="1" d=" M-0.6470000147819519,3.5350000858306885 C-2.562000036239624,2.497999906539917 -1.6699999570846558,-0.7570000290870667 -0.08900000154972076,-2.447999954223633 C1.4930000305175781,-4.138999938964844 2.562000036239624,-3.25600004196167 2.375999927520752,-1.8140000104904175 C2.190000057220459,-0.3720000088214874 0.4690000116825104,4.138999938964844 -0.6470000147819519,3.5350000858306885z"></path></g><g opacity="1" transform="matrix(1,0,0,1,80.802001953125,25.613000869750977)"><path stroke-linecap="butt" stroke-linejoin="miter" fill-opacity="0" stroke-miterlimit="10" stroke="rgb(255,255,255)" stroke-opacity="1" stroke-width="1" d=" M-1.8830000162124634,-6.36899995803833 C1.8609999418258667,-7.539000034332275 4.7210001945495605,5.2129998207092285 2.489000082015991,6.375999927520752 C0.25600001215934753,7.539000034332275 -1.7450000047683716,3.881999969482422 -3.2330000400543213,-0.012000000104308128 C-4.7210001945495605,-3.9040000438690186 -4.116000175476074,-5.671000003814697 -1.8830000162124634,-6.36899995803833z"></path></g></g><g transform="matrix(2.619999885559082,0,0,2.619999885559082,83.19041442871094,331.31170654296875)" opacity="1" style="display: block;"><g opacity="1" transform="matrix(1,0,0,1,11.677000045776367,13.685999870300293)"><path fill="rgb(49,49,123)" fill-opacity="1" d=" M4.372000217437744,11.406000137329102 C4.372000217437744,11.406000137329102 -9.39799976348877,7.802999973297119 -9.39799976348877,7.802999973297119 C-9.39799976348877,7.802999973297119 -4.372000217437744,-11.406000137329102 -4.372000217437744,-11.406000137329102 C-4.372000217437744,-11.406000137329102 9.39799976348877,-7.802999973297119 9.39799976348877,-7.802999973297119 C9.39799976348877,-7.802999973297119 4.372000217437744,11.406000137329102 4.372000217437744,11.406000137329102z"></path><path stroke-linecap="butt" stroke-linejoin="round" fill-opacity="0" stroke="rgb(247,143,37)" stroke-opacity="1" stroke-width="0.912" d=" M4.372000217437744,11.406000137329102 C4.372000217437744,11.406000137329102 -9.39799976348877,7.802999973297119 -9.39799976348877,7.802999973297119 C-9.39799976348877,7.802999973297119 -4.372000217437744,-11.406000137329102 -4.372000217437744,-11.406000137329102 C-4.372000217437744,-11.406000137329102 9.39799976348877,-7.802999973297119 9.39799976348877,-7.802999973297119 C9.39799976348877,-7.802999973297119 4.372000217437744,11.406000137329102 4.372000217437744,11.406000137329102z"></path></g></g><g transform="matrix(2.619999885559082,0,0,2.619999885559082,61.05406188964844,242.38629150390625)" opacity="1" style="display: block;"><g opacity="1" transform="matrix(1,0,0,1,16.8799991607666,16.711000442504883)"><path fill="rgb(247,143,37)" fill-opacity="1" d=" M-6.013999938964844,14.36400032043457 C-6.013999938964844,14.36400032043457 13.520999908447266,7.7270002365112305 13.520999908447266,7.7270002365112305 C14.369000434875488,7.439000129699707 14.822999954223633,6.517000198364258 14.53499984741211,5.669000148773193 C14.53499984741211,5.669000148773193 8.074000358581543,-13.350000381469727 8.074000358581543,-13.350000381469727 C7.784999847412109,-14.197999954223633 6.863999843597412,-14.652999877929688 6.014999866485596,-14.36400032043457 C6.014999866485596,-14.36400032043457 -13.519000053405762,-7.7270002365112305 -13.519000053405762,-7.7270002365112305 C-14.368000030517578,-7.439000129699707 -14.822999954223633,-6.517000198364258 -14.534000396728516,-5.669000148773193 C-14.534000396728516,-5.669000148773193 -8.072999954223633,13.350000381469727 -8.072999954223633,13.350000381469727 C-7.783999919891357,14.197999954223633 -6.86299991607666,14.652999877929688 -6.013999938964844,14.36400032043457z"></path></g><g opacity="1" transform="matrix(1,0,0,1,16.8799991607666,16.711000442504883)"><path stroke-linecap="butt" stroke-linejoin="miter" fill-opacity="0" stroke-miterlimit="10" stroke="rgb(49,49,123)" stroke-opacity="1" stroke-width="0.823" d=" M-6.013999938964844,14.36400032043457 C-6.013999938964844,14.36400032043457 13.520999908447266,7.7270002365112305 13.520999908447266,7.7270002365112305 C14.369000434875488,7.439000129699707 14.822999954223633,6.517000198364258 14.53499984741211,5.669000148773193 C14.53499984741211,5.669000148773193 8.074000358581543,-13.350000381469727 8.074000358581543,-13.350000381469727 C7.784999847412109,-14.197999954223633 6.863999843597412,-14.652999877929688 6.014999866485596,-14.36400032043457 C6.014999866485596,-14.36400032043457 -13.519000053405762,-7.7270002365112305 -13.519000053405762,-7.7270002365112305 C-14.368000030517578,-7.439000129699707 -14.822999954223633,-6.517000198364258 -14.534000396728516,-5.669000148773193 C-14.534000396728516,-5.669000148773193 -8.072999954223633,13.350000381469727 -8.072999954223633,13.350000381469727 C-7.783999919891357,14.197999954223633 -6.86299991607666,14.652999877929688 -6.013999938964844,14.36400032043457z"></path></g><g opacity="1" transform="matrix(1,0,0,1,8.576000213623047,11.222999572753906)"><path fill="rgb(247,143,37)" fill-opacity="1" d=" M4.150000095367432,-5.119999885559082 C4.104000091552734,-3.1659998893737793 4.428999900817871,-1.8179999589920044 2.755000114440918,-0.14300000667572021 C1.0809999704360962,1.531000018119812 -0.7799999713897705,2.13700008392334 -2.128999948501587,2.7880001068115234 C-3.4769999980926514,3.438999891281128 -4.428999900817871,5.119999885559082 -4.428999900817871,5.119999885559082"></path></g><g opacity="1" transform="matrix(1,0,0,1,8.576000213623047,11.222999572753906)"><path stroke-linecap="butt" stroke-linejoin="miter" fill-opacity="0" stroke-miterlimit="10" stroke="rgb(49,49,123)" stroke-opacity="1" stroke-width="0.823" d=" M4.150000095367432,-5.119999885559082 C4.104000091552734,-3.1659998893737793 4.428999900817871,-1.8179999589920044 2.755000114440918,-0.14300000667572021 C1.0809999704360962,1.531000018119812 -0.7799999713897705,2.13700008392334 -2.128999948501587,2.7880001068115234 C-3.4769999980926514,3.438999891281128 -4.428999900817871,5.119999885559082 -4.428999900817871,5.119999885559082"></path></g><g opacity="1" transform="matrix(1,0,0,1,17.485000610351562,18.48699951171875)"><path fill="rgb(247,143,37)" fill-opacity="1" d=" M-11.11299991607666,4.4019999504089355 C-9.82699966430664,2.872999906539917 -8.758000373840332,0.8730000257492065 -5.36299991607666,-0.28999999165534973 C-1.9670000076293945,-1.4529999494552612 0.49799999594688416,0.9660000205039978 4.63700008392334,-0.5690000057220459 C8.777000427246094,-2.1040000915527344 10.100000381469727,-3.1640000343322754 11.11299991607666,-4.4019999504089355"></path></g><g opacity="1" transform="matrix(1,0,0,1,17.485000610351562,18.48699951171875)"><path stroke-linecap="butt" stroke-linejoin="miter" fill-opacity="0" stroke-miterlimit="10" stroke="rgb(49,49,123)" stroke-opacity="1" stroke-width="0.823" d=" M-11.11299991607666,4.4019999504089355 C-9.82699966430664,2.872999906539917 -8.758000373840332,0.8730000257492065 -5.36299991607666,-0.28999999165534973 C-1.9670000076293945,-1.4529999494552612 0.49799999594688416,0.9660000205039978 4.63700008392334,-0.5690000057220459 C8.777000427246094,-2.1040000915527344 10.100000381469727,-3.1640000343322754 11.11299991607666,-4.4019999504089355"></path></g><g opacity="1" transform="matrix(1,0,0,1,16.15999984741211,16.45199966430664)"><path stroke-linecap="butt" stroke-linejoin="miter" fill-opacity="0" stroke-miterlimit="10" stroke="rgb(49,49,123)" stroke-opacity="1" stroke-width="0.823" d=" M-7.077000141143799,14.104999542236328 C-3.6659998893737793,13.093000411987305 0.6600000262260437,11.187999725341797 2.8459999561309814,6.861999988555908 C5.0320000648498535,2.5360000133514404 7.077000141143799,-0.9020000100135803 6.38100004196167,-6.3480000495910645 C5.86899995803833,-10.347999572753906 6.020999908447266,-12.513999938964844 6.736000061035156,-14.104999542236328"></path></g><g opacity="1" transform="matrix(1,0,0,1,19.339000701904297,23.945999145507812)"><path stroke-linecap="butt" stroke-linejoin="miter" fill-opacity="0" stroke-miterlimit="10" stroke="rgb(49,49,123)" stroke-opacity="1" stroke-width="0.823" d=" M-11.699999809265137,2.674999952316284 C-9.496000289916992,0.8090000152587891 -7.250999927520752,-0.8190000057220459 -3.3499999046325684,-0.7730000019073486 C0.550000011920929,-0.7260000109672546 3.434000015258789,-0.5519999861717224 5.946000099182129,-1.0570000410079956 C8.456999778747559,-1.562999963760376 11.699999809265137,-2.674999952316284 11.699999809265137,-2.674999952316284"></path></g></g><g transform="matrix(0.5683280825614929,0.09612550586462021,-0.09612550586462021,0.5683280825614929,594.4652709960938,109.11754608154297)" opacity="1" style="display: block;"><g opacity="1" transform="matrix(1,0,0,1,282.25,282.25)"><path fill="rgb(145,145,144)" fill-opacity="1" d=" M282,0 C282,155.74400329589844 155.74400329589844,282 0,282 C-155.74400329589844,282 -282,155.74400329589844 -282,0 C-282,-155.74400329589844 -155.74400329589844,-282 0,-282 C155.74400329589844,-282 282,-155.74400329589844 282,0z"></path></g></g><g transform="matrix(0.5683280825614929,0.09612550586462021,-0.09612550586462021,0.5683280825614929,583.2909545898438,106.05738830566406)" opacity="1" style="display: block;"><g opacity="1" transform="matrix(1,0,0,1,282.25,282.25)"><path fill="url(#__lottie_element_2887)" fill-opacity="1" d=" M-282,0 C-282,155.74400329589844 -155.7429962158203,282 0.0010000000474974513,282 C155.7449951171875,282 282,155.74400329589844 282,0 C282,-155.74400329589844 155.7449951171875,-282 0.0010000000474974513,-282 C-155.7429962158203,-282 -282,-155.74400329589844 -282,0z"></path></g></g><g clip-path="url(#__lottie_element_2882)" transform="matrix(0.5763999819755554,0,0,0.5763999819755554,553.8812255859375,130.9105224609375)" opacity="1" style="display: block;"><g opacity="1" transform="matrix(1,0,0,1,282.25,282.25)"><path fill="rgb(244,137,37)" fill-opacity="1" d=" M282,0 C282,155.74400329589844 155.74400329589844,282 0,282 C-155.74400329589844,282 -282,155.74400329589844 -282,0 C-282,-155.74400329589844 -155.74400329589844,-282 0,-282 C155.74400329589844,-282 282,-155.74400329589844 282,0z"></path></g></g><g clip-path="url(#__lottie_element_2879)" transform="matrix(-0.5763999819755554,0,0,-0.5763999819755554,879.259033203125,456.288330078125)" opacity="1" style="display: block;"><g opacity="1" transform="matrix(1,0,0,1,282.25,282.25)"><path fill="rgb(244,137,37)" fill-opacity="1" d=" M282,0 C282,155.74400329589844 155.74400329589844,282 0,282 C-155.74400329589844,282 -282,155.74400329589844 -282,0 C-282,-155.74400329589844 -155.74400329589844,-282 0,-282 C155.74400329589844,-282 282,-155.74400329589844 282,0z"></path></g></g><g clip-path="url(#__lottie_element_2876)" transform="matrix(-0.5763999819755554,0,0,-0.5763999819755554,879.259033203125,456.288330078125)" opacity="1" style="display: block;"><g opacity="1" transform="matrix(1,0,0,1,282.25,282.25)"><path fill="rgb(49,49,123)" fill-opacity="1" d=" M282,0 C282,155.74400329589844 155.74400329589844,282 0,282 C-155.74400329589844,282 -282,155.74400329589844 -282,0 C-282,-155.74400329589844 -155.74400329589844,-282 0,-282 C155.74400329589844,-282 282,-155.74400329589844 282,0z"></path></g></g><g clip-path="url(#__lottie_element_2873)" transform="matrix(0.5763999819755554,0,0,0.5763999819755554,553.8812255859375,130.9105224609375)" opacity="1" style="display: block;"><g opacity="1" transform="matrix(1,0,0,1,282.25,282.25)"><path fill="rgb(49,49,123)" fill-opacity="1" d=" M282,0 C282,155.74400329589844 155.74400329589844,282 0,282 C-155.74400329589844,282 -282,155.74400329589844 -282,0 C-282,-155.74400329589844 -155.74400329589844,-282 0,-282 C155.74400329589844,-282 282,-155.74400329589844 282,0z"></path></g></g><g transform="matrix(2.619999885559082,0,0,2.619999885559082,179.28675842285156,384.82257080078125)" opacity="1" style="display: block;"><g opacity="1" transform="matrix(1,0,0,1,136.43600463867188,62.9010009765625)"><path fill="rgb(173,173,173)" fill-opacity="1" d=" M134.18600463867188,-46.47999954223633 C128.34100341796875,-31.41200065612793 122.6510009765625,-1.3140000104904175 37.06999969482422,32.91899871826172 C-48.512001037597656,67.1520004272461 -96.88400268554688,22.128999710083008 -106.18599700927734,18.408000946044922 C-115.48799896240234,14.687000274658203 -127.76799774169922,9.102999687194824 -132.9759979248047,10.96500015258789 C-138.18499755859375,12.82699966430664 -127.76799774169922,-6.668000221252441 -106.18599700927734,-15.154000282287598 C-84.6050033569336,-23.639999389648438 -74.3270034790039,-24.527999877929688 -57.512001037597656,-15.154000282287598 C-40.696998596191406,-5.78000020980835 -28.604999542236328,-1.128000020980835 -3.9539999961853027,-4.570000171661377 C20.697999954223633,-8.01200008392334 50.46500015258789,-22.058000564575195 69.06999969482422,-36.47700119018555 C87.67500305175781,-50.895999908447266 90.83599853515625,-56.290000915527344 92.13899993896484,-56.847999572753906 C93.44100189208984,-57.40599822998047 93.25499725341797,-58.15299987792969 97.16300201416016,-56.10499954223633 C101.06900024414062,-54.05799865722656 127.76799774169922,-46.801998138427734 134.18600463867188,-46.47999954223633z"></path></g><g opacity="1" transform="matrix(1,0,0,1,136.43600463867188,62.9010009765625)"><path fill="rgb(247,143,37)" fill-opacity="1" d=" M136.18600463867188,-50.97999954223633 C130.34100341796875,-35.9119987487793 124.6510009765625,-5.813000202178955 39.06999969482422,28.41900062561035 C-46.512001037597656,62.652000427246094 -94.88400268554688,17.628000259399414 -104.18599700927734,13.907999992370605 C-113.48799896240234,10.187000274658203 -125.76699829101562,4.605000019073486 -130.9759979248047,6.465000152587891 C-136.18499755859375,8.32699966430664 -125.76799774169922,-11.168000221252441 -104.18599700927734,-19.65399932861328 C-82.6050033569336,-28.139999389648438 -72.32599639892578,-29.02899932861328 -55.512001037597656,-19.65399932861328 C-38.696998596191406,-10.279999732971191 -26.604999542236328,-5.627999782562256 -1.9539999961853027,-9.069999694824219 C22.697999954223633,-12.51200008392334 52.46500015258789,-26.558000564575195 71.06999969482422,-40.97700119018555 C89.67500305175781,-55.395999908447266 92.83599853515625,-60.790000915527344 94.13899993896484,-61.347999572753906 C95.44100189208984,-61.90599822998047 95.25499725341797,-62.652000427246094 99.16300201416016,-60.60499954223633 C103.06900024414062,-58.55799865722656 129.76800537109375,-51.301998138427734 136.18600463867188,-50.97999954223633z"></path></g><g opacity="1" transform="matrix(1,0,0,1,52.98500061035156,45.275001525878906)"><path fill="rgb(221,221,221)" fill-opacity="1" d=" M-15.057999610900879,-3.752000093460083 C-15.057999610900879,-3.752000093460083 -12.635000228881836,-2.8589999675750732 -9.487000465393066,-1.2350000143051147 C-6.339000225067139,0.3889999985694885 0.0560000017285347,6.785999774932861 1.274999976158142,8.130999565124512 C2.49399995803833,9.47599983215332 3.4089999198913574,9.425999641418457 4.728000164031982,8.130999565124512 C6.046999931335449,6.835999965667725 12.199999809265137,-1.4800000190734863 16.058000564575195,-7.164999961853027 C16.058000564575195,-7.164999961853027 9.07800006866455,-8.975000381469727 1.5470000505447388,-7.999000072479248 C-5.984000205993652,-7.0229997634887695 -15.057999610900879,-3.752000093460083 -15.057999610900879,-3.752000093460083z"></path></g><g opacity="1" transform="matrix(1,0,0,1,71.5459976196289,27.312999725341797)"><path stroke-linecap="butt" stroke-linejoin="miter" fill-opacity="0" stroke-miterlimit="10" stroke="rgb(0,0,0)" stroke-opacity="1" stroke-width="0.823" d=" M92.98899841308594,56.97700119018555 C82.83399963378906,64.76899719238281 80.1500015258789,67.302001953125 77.8479995727539,64.79100036621094 C75.5459976196289,62.279998779296875 75.40699768066406,58.02399826049805 75.40699768066406,55.861000061035156 C75.40699768066406,53.698001861572266 74.01200103759766,53.20899963378906 71.56999969482422,54.46500015258789 C69.12899780273438,55.72100067138672 58.731998443603516,61.86199951171875 55.24399948120117,64.6520004272461 C51.75600051879883,67.44200134277344 43.0359992980957,69.25599670410156 43.45399856567383,60.25600051879883 C43.87200164794922,51.25600051879883 50.290000915527344,45.53499984741211 51.05799865722656,41.27899932861328 C51.82600021362305,37.02299880981445 47.847999572753906,37.99800109863281 45.96500015258789,38.55699920654297 C44.08100128173828,39.11600112915039 33.75600051879883,43.16299819946289 19.941999435424805,53.62799835205078 C6.127999782562256,64.09300231933594 -3.7090001106262207,60.46500015258789 -5.941999912261963,52.861000061035156 C-8.175000190734863,45.25600051879883 -7.756999969482422,39.11600112915039 -3.7799999713897705,31.23200035095215 C0.19699999690055847,23.347999572753906 4.593999862670898,21.18600082397461 5.78000020980835,27.18600082397461 C6.966000080108643,33.18600082397461 -6.361000061035156,40.861000061035156 -11.244999885559082,43.652000427246094 C-16.128000259399414,46.44200134277344 -28.408000946044922,47.347999572753906 -26.80299949645996,36.04600143432617 C-25.197999954223633,24.743999481201172 -22.547000885009766,19.719999313354492 -19.617000579833984,19.23200035095215 C-16.68600082397461,18.743999481201172 -11.942000389099121,20.836000442504883 -17.80299949645996,26.20800018310547 C-23.663000106811523,31.579999923706055 -30.499000549316406,36.46500015258789 -38.24300003051758,36.60499954223633 C-45.987998962402344,36.744998931884766 -38.94300079345703,26.138999938964844 -36.152000427246094,24.18600082397461 C-33.361000061035156,22.232999801635742 -32.17499923706055,19.652000427246094 -32.17499923706055,19.652000427246094"></path></g><g opacity="1" transform="matrix(1,0,0,1,53.2140007019043,44.40299987792969)"><path fill="rgb(218,90,37)" fill-opacity="1" d=" M-12.690999984741211,-3.4790000915527344 C-12.690999984741211,-3.4790000915527344 -10.472000122070312,-2.6619999408721924 -7.5879998207092285,-1.1740000247955322 C-4.703999996185303,0.3140000104904175 1.1549999713897705,6.175000190734863 2.2720000743865967,7.4070000648498535 C3.3889999389648438,8.640000343322754 4.2270002365112305,8.593000411987305 5.435999870300293,7.4070000648498535 C6.644999980926514,6.2210001945495605 12.281999588012695,-1.3980000019073486 15.815999984741211,-6.60699987411499 C15.815999984741211,-6.60699987411499 9.420999526977539,-8.265000343322754 2.5209999084472656,-7.370999813079834 C-4.379000186920166,-6.4770002365112305 -12.690999984741211,-3.4790000915527344 -12.690999984741211,-3.4790000915527344z"></path></g></g><g transform="matrix(2.619999885559082,0,0,2.619999885559082,797.8372802734375,426.32861328125)" opacity="1" style="display: block;"><g opacity="1" transform="matrix(1,0,0,1,7.539000034332275,7.539000034332275)"><path fill="rgb(255,255,255)" fill-opacity="1" d=" M-7.288000106811523,0 C-7.288000106811523,4.025000095367432 -4.026000022888184,7.288000106811523 -0.0010000000474974513,7.288000106811523 C4.02400016784668,7.288000106811523 7.288000106811523,4.025000095367432 7.288000106811523,0 C7.288000106811523,-4.025000095367432 4.02400016784668,-7.288000106811523 -0.0010000000474974513,-7.288000106811523 C-4.026000022888184,-7.288000106811523 -7.288000106811523,-4.025000095367432 -7.288000106811523,0z"></path></g></g><g transform="matrix(2.619999885559082,0,0,2.619999885559082,783.215087890625,408.2218017578125)" opacity="1" style="display: block;"><g opacity="1" transform="matrix(1,0,0,1,4.669000148773193,4.668000221252441)"><path fill="rgb(255,255,255)" fill-opacity="1" d=" M-4.419000148773193,0 C-4.419000148773193,2.440000057220459 -2.440000057220459,4.419000148773193 0,4.419000148773193 C2.440000057220459,4.419000148773193 4.419000148773193,2.440000057220459 4.419000148773193,0 C4.419000148773193,-2.440000057220459 2.440000057220459,-4.419000148773193 0,-4.419000148773193 C-2.440000057220459,-4.419000148773193 -4.419000148773193,-2.440000057220459 -4.419000148773193,0z"></path></g></g><g transform="matrix(2.619999885559082,0,0,2.619999885559082,783.215087890625,433.80084228515625)" opacity="1" style="display: block;"><g opacity="1" transform="matrix(1,0,0,1,2.0190000534057617,2.0199999809265137)"><path fill="rgb(255,255,255)" fill-opacity="1" d=" M1.7699999809265137,0 C1.7699999809265137,-0.9779999852180481 0.9769999980926514,-1.7699999809265137 -0.0010000000474974513,-1.7699999809265137 C-0.9769999980926514,-1.7699999809265137 -1.7699999809265137,-0.9779999852180481 -1.7699999809265137,0 C-1.7699999809265137,0.9769999980926514 -0.9769999980926514,1.7699999809265137 -0.0010000000474974513,1.7699999809265137 C0.9769999980926514,1.7699999809265137 1.7699999809265137,0.9769999980926514 1.7699999809265137,0z"></path></g></g><g transform="matrix(0.6811973452568054,-0.0018784883432090282,0.0018784883432090282,0.6811973452568054,511.2025451660156,213.80874633789062)" opacity="1" style="display: block;"><g opacity="1" transform="matrix(1,0,0,1,50.685001373291016,45.0880012512207)"><path fill="rgb(185,10,79)" fill-opacity="1" d=" M50.435001373291016,13.95300006866455 C50.435001373291016,13.95300006866455 41.13199996948242,-9.116999626159668 33.31800079345703,-26.976999282836914 C25.503999710083008,-44.8380012512207 -50.435001373291016,-18.066999435424805 -43.70600128173828,0.5569999814033508 C-36.97600173950195,19.18199920654297 -27.70599937438965,44.83700180053711 -27.70599937438965,44.83700180053711 C-27.70599937438965,44.83700180053711 50.435001373291016,13.95300006866455 50.435001373291016,13.95300006866455z"></path></g><g opacity="1" transform="matrix(1,0,0,1,141.68600463867188,258.9530029296875)"><path fill="rgb(250,250,250)" fill-opacity="1" d=" M55.79999923706055,185.84500122070312 C55.79999923706055,185.84500122070312 78.1989974975586,177.58599853515625 78.1989974975586,177.58599853515625 C78.1989974975586,177.58599853515625 -55.79800033569336,-185.84500122070312 -55.79800033569336,-185.84500122070312 C-55.79800033569336,-185.84500122070312 -78.1989974975586,-177.58700561523438 -78.1989974975586,-177.58700561523438 C-78.1989974975586,-177.58700561523438 55.79999923706055,185.84500122070312 55.79999923706055,185.84500122070312z"></path></g><g opacity="1" transform="matrix(1,0,0,1,164.06700134277344,250.7010040283203)"><path fill="rgb(232,115,159)" fill-opacity="1" d=" M55.79899978637695,185.84500122070312 C55.79899978637695,185.84500122070312 78.197998046875,177.58599853515625 78.197998046875,177.58599853515625 C78.197998046875,177.58599853515625 -55.79899978637695,-185.84500122070312 -55.79899978637695,-185.84500122070312 C-55.79899978637695,-185.84500122070312 -78.197998046875,-177.58700561523438 -78.197998046875,-177.58700561523438 C-78.197998046875,-177.58700561523438 55.79899978637695,185.84500122070312 55.79899978637695,185.84500122070312z"></path></g><g opacity="1" transform="matrix(1,0,0,1,96.8479995727539,275.4849853515625)"><path fill="rgb(250,250,250)" fill-opacity="1" d=" M55.79999923706055,185.8459930419922 C55.79999923706055,185.8459930419922 78.1989974975586,177.58700561523438 78.1989974975586,177.58700561523438 C78.1989974975586,177.58700561523438 -55.79800033569336,-185.8459930419922 -55.79800033569336,-185.8459930419922 C-55.79800033569336,-185.8459930419922 -78.1989974975586,-177.58700561523438 -78.1989974975586,-177.58700561523438 C-78.1989974975586,-177.58700561523438 55.79999923706055,185.8459930419922 55.79999923706055,185.8459930419922z"></path></g><g opacity="1" transform="matrix(1,0,0,1,119.85800170898438,267.0010070800781)"><path fill="rgb(232,115,159)" fill-opacity="1" d=" M55.79899978637695,185.84500122070312 C55.79899978637695,185.84500122070312 78.197998046875,177.58599853515625 78.197998046875,177.58599853515625 C78.197998046875,177.58599853515625 -55.79899978637695,-185.84500122070312 -55.79899978637695,-185.84500122070312 C-55.79899978637695,-185.84500122070312 -78.197998046875,-177.58700561523438 -78.197998046875,-177.58700561523438 C-78.197998046875,-177.58700561523438 55.79899978637695,185.84500122070312 55.79899978637695,185.84500122070312z"></path></g><g opacity="1" transform="matrix(1,0,0,1,108.27100372314453,271.27301025390625)"><path fill="rgb(0,0,0)" fill-opacity="1" d=" M66.01899719238281,182.07699584960938 C66.01899719238281,182.07699584960938 67.97799682617188,181.35499572753906 67.97799682617188,181.35499572753906 C67.97799682617188,181.35499572753906 -66.01899719238281,-182.07699584960938 -66.01899719238281,-182.07699584960938 C-66.01899719238281,-182.07699584960938 -67.97799682617188,-181.35499572753906 -67.97799682617188,-181.35499572753906 C-67.97799682617188,-181.35499572753906 66.01899719238281,182.07699584960938 66.01899719238281,182.07699584960938z"></path></g><g opacity="1" transform="matrix(1,0,0,1,130.46400451660156,263.09100341796875)"><path fill="rgb(0,0,0)" fill-opacity="1" d=" M66.01899719238281,182.07699584960938 C66.01899719238281,182.07699584960938 67.97799682617188,181.35499572753906 67.97799682617188,181.35499572753906 C67.97799682617188,181.35499572753906 -66.01899719238281,-182.07699584960938 -66.01899719238281,-182.07699584960938 C-66.01899719238281,-182.07699584960938 -67.97799682617188,-181.35499572753906 -67.97799682617188,-181.35499572753906 C-67.97799682617188,-181.35499572753906 66.01899719238281,182.07699584960938 66.01899719238281,182.07699584960938z"></path></g><g opacity="1" transform="matrix(1,0,0,1,152.4929962158203,254.96800231933594)"><path fill="rgb(0,0,0)" fill-opacity="1" d=" M66.01899719238281,182.07699584960938 C66.01899719238281,182.07699584960938 67.97799682617188,181.3560028076172 67.97799682617188,181.3560028076172 C67.97799682617188,181.3560028076172 -66.01899719238281,-182.07699584960938 -66.01899719238281,-182.07699584960938 C-66.01899719238281,-182.07699584960938 -67.97799682617188,-181.3560028076172 -67.97799682617188,-181.3560028076172 C-67.97799682617188,-181.3560028076172 66.01899719238281,182.07699584960938 66.01899719238281,182.07699584960938z"></path></g><g opacity="1" transform="matrix(1,0,0,1,197.45599365234375,470.67401123046875)"><path fill="rgb(135,135,199)" fill-opacity="1" d=" M28.69499969482422,56.37200164794922 C28.69499969482422,56.37200164794922 44.808998107910156,-42.38600158691406 44.808998107910156,-42.38600158691406 C44.808998107910156,-42.38600158691406 26.46299934387207,-56.37200164794922 26.46299934387207,-56.37200164794922 C26.46299934387207,-56.37200164794922 23.014999389648438,-34.349998474121094 23.014999389648438,-34.349998474121094 C23.014999389648438,-34.349998474121094 3.3919999599456787,-48.93000030517578 3.3919999599456787,-48.93000030517578 C3.3919999599456787,-48.93000030517578 0.9860000014305115,-26.22800064086914 0.9860000014305115,-26.22800064086914 C0.9860000014305115,-26.22800064086914 -19.677000045776367,-40.74399948120117 -19.677000045776367,-40.74399948120117 C-19.677000045776367,-40.74399948120117 -21.207000732421875,-18.045000076293945 -21.207000732421875,-18.045000076293945 C-21.207000732421875,-18.045000076293945 -41.257999420166016,-32.93000030517578 -41.257999420166016,-32.93000030517578 C-41.257999420166016,-32.93000030517578 -44.808998107910156,-9.343000411987305 -44.808998107910156,-9.343000411987305 C-44.808998107910156,-9.343000411987305 28.69499969482422,56.37200164794922 28.69499969482422,56.37200164794922z"></path></g><g opacity="1" transform="matrix(1,0,0,1,60.257999420166016,71.53399658203125)"><path fill="rgb(135,135,199)" fill-opacity="1" d=" M36.59199905395508,-26.02199935913086 C36.59199905395508,-26.02199935913086 -45.36600112915039,4.955999851226807 -45.36600112915039,4.955999851226807 C-47.47800064086914,5.754000186920166 -48.555999755859375,8.102999687194824 -47.78499984741211,10.225000381469727 C-47.78499984741211,10.225000381469727 -41.73500061035156,26.86199951171875 -41.73500061035156,26.86199951171875 C-41.73500061035156,26.86199951171875 48.555999755859375,-5.201000213623047 48.555999755859375,-5.201000213623047 C48.555999755859375,-5.201000213623047 41.987998962402344,-23.389999389648438 41.987998962402344,-23.389999389648438 C41.28200149536133,-25.658000946044922 38.8129997253418,-26.86199951171875 36.59199905395508,-26.02199935913086z"></path></g><g opacity="1" transform="matrix(1,0,0,1,216.38499450683594,508.0690002441406)"><path fill="rgb(0,0,0)" fill-opacity="1" d=" M9.765999794006348,18.976999282836914 C9.765999794006348,18.976999282836914 16.090999603271484,-18.976999282836914 16.090999603271484,-18.976999282836914 C16.090999603271484,-18.976999282836914 -16.090999603271484,-4.140999794006348 -16.090999603271484,-4.140999794006348 C-16.090999603271484,-4.140999794006348 9.765999794006348,18.976999282836914 9.765999794006348,18.976999282836914z"></path></g></g></g></svg>
