<svg xmlns="http://www.w3.org/2000/svg" xmlns:xlink="http://www.w3.org/1999/xlink" viewBox="0 0 160 160"  preserveAspectRatio="xMidYMid meet" style="width: 100%; height: 100%; transform: translate3d(0px, 0px, 0px); content-visibility: visible;"><defs><clipPath id="__lottie_element_1277"><rect width="160" height="160" x="0" y="0"></rect></clipPath></defs><g clip-path="url(#__lottie_element_1277)"><g transform="matrix(1,0,0,1,100,100)" opacity="1" style="display: block;"><g opacity="1" transform="matrix(1,0,0,1,0,0)"><g opacity="1" transform="matrix(1,0,0,1,0,0)"><g opacity="1" transform="matrix(0.8660253882408142,0.5,-1,0.5773502588272095,0,0)"><g opacity="1" transform="matrix(1,0,0,1,0,0)"><path fill="rgb(155,171,243)" fill-opacity="1" d=" M30,-24 C30,-24 30,24 30,24 C30,27.311399459838867 27.311399459838867,30 24,30 C24,30 -64,30 -64,30 C-67.3114013671875,30 -70,27.311399459838867 -70,24 C-70,24 -70,-24 -70,-24 C-70,-27.311399459838867 -67.3114013671875,-30 -64,-30 C-64,-30 24,-30 24,-30 C27.311399459838867,-30 30,-27.311399459838867 30,-24z"></path></g><g opacity="1" transform="matrix(1,0,0,1,-1,0)"><g opacity="1" transform="matrix(1,0,0,1,0,0)"><g opacity="1" transform="matrix(1,0,0,1,0,0)"><path fill="rgb(23,47,149)" fill-opacity="1" d=" M20,-30 C20,-30 20,30 20,30 C20,30 -60,30 -60,30 C-60,30 -60,-30 -60,-30 C-60,-30 20,-30 20,-30z"></path></g><g opacity="1" transform="matrix(1,0,0,1,0,0)"><g opacity="0" transform="matrix(1,0,0,1,0,0)"><path fill="rgb(23,47,149)" fill-opacity="1" d=" M20,-30 C20,-30 20,30 20,30 C20,30 8.744000434875488,26.368999481201172 -3.75,26.75200080871582 C-15.041000366210938,27.099000930786133 -20,30 -20,30 C-20,30 -20,-30 -20,-30 C-20,-30 -18.3439998626709,-33.26100158691406 -3.75,-33.24800109863281 C8.75,-33.23699951171875 20,-30 20,-30z"></path></g><g opacity="0" transform="matrix(1,0,0,1,0,0)"><path fill="rgb(73,101,233)" fill-opacity="1" d=" M20,-30 C20,-30 20,30 20,30 C20,30 8.744000434875488,26.368999481201172 -3.75,26.75200080871582 C-15.041000366210938,27.099000930786133 -20,30 -20,30 C-20,30 -20,-30 -20,-30 C-20,-30 -18.3439998626709,-33.26100158691406 -3.75,-33.24800109863281 C8.75,-33.23699951171875 20,-30 20,-30z"></path></g><g opacity="1" transform="matrix(1,0,0,1,0,0)"><path fill="rgb(73,101,233)" fill-opacity="1" d=" M-61,-30 C-61,-30 -61,30 -61,30 C-61,30 -54.417999267578125,27.020000457763672 -44.25,26.75200080871582 C-34.082000732421875,26.483999252319336 -20,30 -20,30 C-20,30 -20,-30 -20,-30 C-20,-30 -34.16699981689453,-33.44200134277344 -44.25,-33.24800109863281 C-54.33300018310547,-33.05400085449219 -61,-30 -61,-30z"></path></g></g></g><g opacity="1" transform="matrix(1,0,0,1,0,0)"><path fill="rgb(73,101,233)" fill-opacity="1" d=" M20,-30 C20,-30 20,30 20,30 C20,30 8.744000434875488,26.368999481201172 -3.75,26.75200080871582 C-15.041000366210938,27.099000930786133 -20,30 -20,30 C-20,30 -20,-30 -20,-30 C-20,-30 -18.3439998626709,-33.26100158691406 -3.75,-33.24800109863281 C8.75,-33.23699951171875 20,-30 20,-30z"></path></g><g opacity="0" transform="matrix(1,0,0,1,0,0)"><path fill="rgb(23,47,149)" fill-opacity="1" d=" M20,-30 C20,-30 20,30 20,30 C20,30 8.744000434875488,26.368999481201172 -3.75,26.75200080871582 C-15.041000366210938,27.099000930786133 -20,30 -20,30 C-20,30 -20,-30 -20,-30 C-20,-30 -18.3439998626709,-33.26100158691406 -3.75,-33.24800109863281 C8.75,-33.23699951171875 20,-30 20,-30z"></path></g></g></g></g></g></g></g></svg>
