<svg xmlns="http://www.w3.org/2000/svg" width="1921.034" height="1076.323" viewBox="0 0 1921.034 1076.323">
    <defs>
        <style>.a{fill:url(#a);}</style>
        <radialGradient id="a" cx="0.149" cy="0.201" r="0.738" gradientTransform="translate(0 -0.017) scale(1 1.083)"
                        gradientUnits="objectBoundingBox">
            <stop offset="0" stop-color="#d9f2f1" stop-opacity="0.502"/>
            <stop offset="1" stop-color="#edfbff" stop-opacity="0.2"/>
        </radialGradient>
    </defs>
    <path class="a"
          d="M0,1069.8c144.272-70.8,158.589,1.627,232.955,0s64.832-46.206,114.554-28.159,260.515,55.319,334.653,14.076,194.69-147.3,354.334-68.424,389.759,4.495,325.14-216.1,90.407-304.612,221.857-313.925S1779.03,583.3,1885.912,377.1A795.4,795.4,0,0,0,1920,303.158c1.255-2.606.482-45.68,0-72.56-.778-43.409,1.035-86.353,1.035-86.353V-1.909H0Z"
          transform="translate(0 1.909)"/>
</svg>
