<svg xmlns="http://www.w3.org/2000/svg" width="1921.034" height="1076.323" viewBox="0 0 1921.034 1076.323">
    <defs>
        <style>.a{fill:url(#a);}</style>
        <linearGradient id="a" x1="1" y1="0.008" x2="0.238" y2="0.902">
            <stop offset="0" stop-color="#f0f0ff"/>
            <stop offset="1" stop-color="#fff" stop-opacity="0.2"/>
        </linearGradient>
    </defs>
    <path class="a"
          d="M1921.034,1069.8c-144.272-70.8-158.589,1.627-232.955,0s-64.832-46.206-114.554-28.159-260.515,55.319-334.653,14.076-194.69-147.3-354.334-68.424S494.779,991.792,559.4,771.2,468.991,466.585,337.541,457.273,142,583.3,35.122,377.1A795.4,795.4,0,0,1,1.035,303.158c-1.255-2.606-.482-45.68,0-72.56C1.813,187.188,0,144.244,0,144.244V-1.909H1921.034Z"
          transform="translate(0 1.909)"/>
</svg>
