<?xml version="1.0" encoding="UTF-8" standalone="no"?>
<!DOCTYPE svg PUBLIC "-//W3C//DTD SVG 1.1//EN" "http://www.w3.org/Graphics/SVG/1.1/DTD/svg11.dtd">
<svg width="100%" height="100%" viewBox="0 0 1024 1024" version="1.1" xmlns="http://www.w3.org/2000/svg" xmlns:xlink="http://www.w3.org/1999/xlink" xml:space="preserve" xmlns:serif="http://www.serif.com/" style="fill-rule:evenodd;clip-rule:evenodd;stroke-linecap:round;stroke-linejoin:round;">
    <g transform="matrix(1.92308,0,0,1.92308,-732.231,-761.077)">
        <circle cx="647" cy="662" r="260" style="fill:rgb(42,90,184);"/>
    </g>
    <g transform="matrix(51.75,0,0,51.75,211,192)">
        <rect x="0" y="0" width="12" height="12" style="fill:none;fill-rule:nonzero;"/>
    </g>
    <g>
        <g transform="matrix(51.75,0,0,51.75,211,192)">
            <path d="M1.5,10.5L1.5,8.5C1.5,7.403 2.403,6.5 3.5,6.5C4.597,6.5 5.5,7.403 5.5,8.5C5.5,9.597 4.597,10.5 3.5,10.5L1.5,10.5" style="fill:none;fill-rule:nonzero;stroke:white;stroke-width:1px;"/>
        </g>
        <g transform="matrix(51.75,0,0,51.75,211,192)">
            <path d="M10.5,1.5C7.597,1.897 5.135,3.859 4.1,6.6" style="fill:none;fill-rule:nonzero;stroke:white;stroke-width:1px;"/>
        </g>
        <g transform="matrix(51.75,0,0,51.75,211,192)">
            <path d="M10.5,1.5C10.103,4.403 8.141,6.865 5.4,7.9" style="fill:none;fill-rule:nonzero;stroke:white;stroke-width:1px;"/>
        </g>
        <g transform="matrix(51.75,0,0,51.75,211,192)">
            <path d="M5.3,4.5C6.271,4.948 7.052,5.729 7.5,6.7" style="fill:none;fill-rule:nonzero;stroke:white;stroke-width:1px;"/>
        </g>
    </g>
</svg>
